<?xml version="1.0" encoding="utf-8"?>
<!-- Generator: Adobe Illustrator 22.1.0, SVG Export Plug-In . SVG Version: 6.00 Build 0)  -->
<svg version="1.1" id="圖層_1" xmlns="http://www.w3.org/2000/svg" xmlns:xlink="http://www.w3.org/1999/xlink" x="0px" y="0px"
	 viewBox="0 0 1200 750" style="enable-background:new 0 0 1200 750;" xml:space="preserve">
<style type="text/css">
	.st0{opacity:0.7;fill:#681212;}
	.st1{fill:none;}
	.st2{fill:#383838;stroke:#383838;stroke-miterlimit:10;}
	.st3{font-family:'Zapfino';}
	.st4{font-size:226.9073px;}
	.st5{opacity:0.7;fill:#7A7A7A;}
</style>
<g>
	<path class="st0" d="M453.9,302.8c-4.5-0.8-8.9-1.7-14.5-2.7c-0.2-4.6-0.1-9.3-0.8-13.8c-0.7-4.5-1.9-9.1-3.4-13.5
		c-3.9-11.7-7.4-13.8-19-8.2c-16.5,8-32.1,17.5-48.2,26.2c-10.5,5.6-21.5,6.2-32.4,1.5c-15.9-6.8-31.5-14.4-47.8-20.5
		c-15.3-5.8-19.1-3.2-21.9,12.6c-1.4,8.4-1.9,16.9-2.7,24.4c-4.6,1.6-7.8,2.7-11.1,3.9c0.1,0.8,0.2,1.7,0.3,2.5
		c3.5,0.7,7,1.4,10.4,2.1c2.3,10.6,3.9,21.3,7.1,31.5c2.9,9.5,7.6,11.8,16.7,7.2c16.3-8.2,32.4-17.1,47.7-26.8
		c12.8-8.2,24.8-8.2,38.2-2.4c17.3,7.5,35,14.3,52.6,21.3c5.9,2.4,9.4-0.3,11.2-5.5c1.3-3.8,2.2-7.7,2.7-11.7
		c0.9-7.5,1.3-15.1,1.9-22c5-1.4,9-2.6,13-3.8C454.1,304.3,454,303.6,453.9,302.8z"/>
	<rect x="272.7" y="95.7" class="st1" width="861.3" height="407.2"/>
	<text transform="matrix(1 0 0 1 272.7295 479.1699)" class="st2 st3 st4">verse.</text>
	<circle class="st5" cx="354" cy="343.9" r="11.4"/>
</g>
</svg>
